<svg width="19" height="22" viewBox="0 0 19 22" fill="none" xmlns="http://www.w3.org/2000/svg">
<path fill-rule="evenodd" clip-rule="evenodd" d="M7.32435 19.106C7.84235 19.683 8.50735 20 9.19735 20H9.19835C9.89135 20 10.5593 19.683 11.0783 19.105C11.3563 18.798 11.8303 18.773 12.1373 19.05C12.4453 19.327 12.4703 19.802 12.1933 20.109C11.3853 21.006 10.3223 21.5 9.19835 21.5H9.19635C8.07535 21.499 7.01435 21.005 6.20935 20.108C5.93235 19.801 5.95735 19.326 6.26535 19.05C6.57335 18.772 7.04735 18.797 7.32435 19.106ZM9.24715 -3.05176e-05C13.6921 -3.05176e-05 16.6782 3.46197 16.6782 6.69497C16.6782 8.35797 17.1012 9.06297 17.5501 9.81097C17.9942 10.549 18.4972 11.387 18.4972 12.971C18.1481 17.018 13.9231 17.348 9.24715 17.348C4.57115 17.348 0.345149 17.018 0.000135307 13.035C-0.00285134 11.387 0.500149 10.549 0.944149 9.81097L1.10089 9.54712C1.48682 8.88383 1.81615 8.16232 1.81615 6.69497C1.81615 3.46197 4.80215 -3.05176e-05 9.24715 -3.05176e-05ZM9.24715 1.49997C5.75215 1.49997 3.31615 4.23797 3.31615 6.69497C3.31615 8.77397 2.73915 9.73497 2.22915 10.583C1.82015 11.264 1.49715 11.802 1.49715 12.971C1.66415 14.857 2.90915 15.848 9.24715 15.848C15.5501 15.848 16.8341 14.813 17.0001 12.906C16.9971 11.802 16.6742 11.264 16.2652 10.583C15.7551 9.73497 15.1781 8.77397 15.1781 6.69497C15.1781 4.23797 12.7421 1.49997 9.24715 1.49997Z" fill="#5D5C5D"/>
</svg>
