<svg width="345" height="72" viewBox="0 0 345 72" fill="none" xmlns="http://www.w3.org/2000/svg">
<path fill-rule="evenodd" clip-rule="evenodd" d="M-19 69.873L-13.255 60.8571C-7.51 51.8413 4.29917 33.8095 15.7892 24.7937C27.2792 15.7778 39.0883 15.7778 50.5783 21.7884C62.3875 27.7989 73.8775 39.8201 85.3675 36.8148C97.1767 33.8095 108.667 15.7778 120.157 6.7619C131.966 -2.25397 143.456 -2.25397 154.946 6.7619C166.755 15.7778 178.245 33.8095 190.054 30.8042C201.544 27.7989 213.034 3.75661 224.843 3.75661C236.333 3.75661 247.823 27.7989 259.633 27.7989C271.122 27.7989 282.612 3.75661 294.422 0.751323C305.912 -2.25397 317.721 15.7778 329.211 33.8095C340.701 51.8413 352.51 69.873 358.255 78.8889L364 87.9048V142H358.255C352.51 142 340.701 142 329.211 142C317.721 142 305.912 142 294.422 142C282.612 142 271.122 142 259.633 142C247.823 142 236.333 142 224.843 142C213.034 142 201.544 142 190.054 142C178.245 142 166.755 142 154.946 142C143.456 142 131.966 142 120.157 142C108.667 142 97.1767 142 85.3675 142C73.8775 142 62.3875 142 50.5783 142C39.0883 142 27.2792 142 15.7892 142C4.29917 142 -7.51 142 -13.255 142H-19V69.873Z" fill="url(#paint0_linear_2_824)"/>
<defs>
<linearGradient id="paint0_linear_2_824" x1="172.5" y1="0" x2="172.5" y2="142" gradientUnits="userSpaceOnUse">
<stop stop-color="#4DC885"/>
<stop offset="0.302083" stop-color="#4DC885" stop-opacity="0.2"/>
</linearGradient>
</defs>
</svg>
