<svg width="19" height="21" viewBox="0 0 19 21" fill="none" xmlns="http://www.w3.org/2000/svg">
<path d="M1 4.8L3.85 1H15.25L18.1 4.8M1 4.8V18.1C1 18.6039 1.20018 19.0872 1.5565 19.4435C1.91282 19.7998 2.39609 20 2.9 20H16.2C16.7039 20 17.1872 19.7998 17.5435 19.4435C17.8998 19.0872 18.1 18.6039 18.1 18.1V4.8M1 4.8H18.1M13.35 8.6C13.35 9.60782 12.9496 10.5744 12.237 11.287C11.5244 11.9996 10.5578 12.4 9.55 12.4C8.54218 12.4 7.57563 11.9996 6.86299 11.287C6.15036 10.5744 5.75 9.60782 5.75 8.6" stroke="#BEBEBE" stroke-width="1.23913" stroke-linecap="round" stroke-linejoin="round"/>
</svg>
